<?xml version="1.0" encoding="UTF-8" standalone="no"?>
<!-- Created with Inkscape (http://www.inkscape.org/) -->

<svg
   xmlns:dc="http://purl.org/dc/elements/1.1/"
   xmlns:cc="http://creativecommons.org/ns#"
   xmlns:rdf="http://www.w3.org/1999/02/22-rdf-syntax-ns#"
   xmlns:svg="http://www.w3.org/2000/svg"
   xmlns="http://www.w3.org/2000/svg"
   xmlns:sodipodi="http://sodipodi.sourceforge.net/DTD/sodipodi-0.dtd"
   xmlns:inkscape="http://www.inkscape.org/namespaces/inkscape"
   width="138.01855mm"
   height="144.41228mm"
   viewBox="0 0 489.04212 511.69704"
   id="svg4161"
   version="1.1"
   inkscape:version="0.91 r13725"
   sodipodi:docname="face.svg">
  <defs
     id="defs4163" />
  <sodipodi:namedview
     id="base"
     pagecolor="#ffffff"
     bordercolor="#666666"
     borderopacity="1.0"
     inkscape:pageopacity="0.0"
     inkscape:pageshadow="2"
     inkscape:zoom="1.1220096"
     inkscape:cx="203.72548"
     inkscape:cy="276.41396"
     inkscape:document-units="px"
     inkscape:current-layer="layer1"
     showgrid="false"
     inkscape:window-width="1600"
     inkscape:window-height="851"
     inkscape:window-x="0"
     inkscape:window-y="25"
     inkscape:window-maximized="1"
     showguides="false"
     fit-margin-top="0"
     fit-margin-left="0"
     fit-margin-right="0"
     fit-margin-bottom="0" />
  <metadata
     id="metadata4166">
    <rdf:RDF>
      <cc:Work
         rdf:about="">
        <dc:format>image/svg+xml</dc:format>
        <dc:type
           rdf:resource="http://purl.org/dc/dcmitype/StillImage" />
        <dc:title></dc:title>
      </cc:Work>
    </rdf:RDF>
  </metadata>
  <g
     inkscape:label="Layer 1"
     inkscape:groupmode="layer"
     id="layer1"
     transform="translate(-78.114271,-142.22798)">
    <path
       style="fill:none;stroke:#ff0000;stroke-width:0.5770613;stroke-miterlimit:4;stroke-dasharray:none;stroke-opacity:1"
       d="m 322.85714,142.51651 a 224.31197,250.83138 0 0 0 -224.311692,250.83166 224.31197,250.83138 0 0 0 0.37505,11.84098 l -0.36528,0 0,248.44732 448.605802,0 0,-248.44732 -0.52154,0 a 224.31197,250.83138 0 0 0 0.52936,-11.84098 224.31197,250.83138 0 0 0 -224.3117,-250.83166 z"
       id="path4136"
       inkscape:connector-curvature="0" />
    <path
       style="fill:none;stroke:#ff0000;stroke-width:0.63;stroke-miterlimit:4;stroke-dasharray:none;stroke-opacity:1"
       d="m 438.17537,237.43576 c -3.10468,0.024 -6.26504,0.13034 -9.48047,0.31836 -37.90745,0.04 -63.04305,10.53705 -88.76953,43.51172 -14.08153,21.74023 -31.72848,41.6978 -52.04883,57.19922 -32.77285,17.06902 -49.38837,20.295 -83.16406,31.89648 -35.84643,12.31276 -50.70272,20.15782 -67.88477,33.0918 -43.919784,26.30285 -58.356303,62.9734 -58.398439,100.33984 1.78e-4,53.40727 51.317819,89.57344 95.812499,102.94141 0,0 22.53959,9.38024 35.5918,10.06054 36.55264,6.20847 85.58219,9.74375 124.8086,3.47461 20.39101,-1.1869 44.34784,-9.50397 61.17382,-16.92968 0,0 12.94559,-5.63719 28.20508,-13.65235 a 45.00853,30.302773 63.8 0 1 7.97461,-52.30469 45.00853,30.302773 63.8 0 1 41.96289,18.42774 c 19.21603,-17.41933 39.15822,-41.38867 39.1582,-41.38867 0,0 53.62679,-52.76248 53.72461,-129.61328 -6.4e-4,-86.32433 -42.41134,-146.5438 -125.58007,-147.36914 -1.02257,-0.0102 -2.05105,-0.0119 -3.08594,-0.004 z m -0.56836,55.57422 a 92.690826,92.690826 0 0 1 92.69141,92.6914 92.690826,92.690826 0 0 1 -92.69141,92.69141 92.690826,92.690826 0 0 1 -92.68945,-92.69141 92.690826,92.690826 0 0 1 92.68945,-92.6914 z M 184.04451,442.7424 a 57.486141,57.486141 0 0 1 57.48633,57.48633 57.486141,57.486141 0 0 1 -57.48633,57.48437 57.486141,57.486141 0 0 1 -57.48633,-57.48437 57.486141,57.486141 0 0 1 57.48633,-57.48633 z"
       id="path4743"
       inkscape:connector-curvature="0" />
  </g>
</svg>
