<?xml version="1.0" encoding="UTF-8" standalone="no"?>
<!-- Created with Inkscape (http://www.inkscape.org/) -->

<svg
   xmlns:dc="http://purl.org/dc/elements/1.1/"
   xmlns:cc="http://creativecommons.org/ns#"
   xmlns:rdf="http://www.w3.org/1999/02/22-rdf-syntax-ns#"
   xmlns:svg="http://www.w3.org/2000/svg"
   xmlns="http://www.w3.org/2000/svg"
   xmlns:sodipodi="http://sodipodi.sourceforge.net/DTD/sodipodi-0.dtd"
   xmlns:inkscape="http://www.inkscape.org/namespaces/inkscape"
   width="126.7747mm"
   height="144.41226mm"
   viewBox="0 0 449.20168 511.69699"
   id="svg4161"
   version="1.1"
   inkscape:version="0.91 r13725"
   sodipodi:docname="face.svg">
  <defs
     id="defs4163" />
  <sodipodi:namedview
     id="base"
     pagecolor="#ffffff"
     bordercolor="#666666"
     borderopacity="1.0"
     inkscape:pageopacity="0.0"
     inkscape:pageshadow="2"
     inkscape:zoom="1.1220096"
     inkscape:cx="203.72576"
     inkscape:cy="240.76356"
     inkscape:document-units="px"
     inkscape:current-layer="layer1"
     showgrid="false"
     inkscape:window-width="1600"
     inkscape:window-height="851"
     inkscape:window-x="0"
     inkscape:window-y="25"
     inkscape:window-maximized="1"
     showguides="false"
     fit-margin-top="0"
     fit-margin-left="0"
     fit-margin-right="0"
     fit-margin-bottom="0" />
  <metadata
     id="metadata4166">
    <rdf:RDF>
      <cc:Work
         rdf:about="">
        <dc:format>image/svg+xml</dc:format>
        <dc:type
           rdf:resource="http://purl.org/dc/dcmitype/StillImage" />
        <dc:title></dc:title>
      </cc:Work>
    </rdf:RDF>
  </metadata>
  <g
     inkscape:label="Layer 1"
     inkscape:groupmode="layer"
     id="layer1"
     transform="translate(-78.113996,-142.22798)">
    <path
       style="fill:none;stroke:#ff0000;stroke-width:0.5770613;stroke-miterlimit:4;stroke-dasharray:none;stroke-opacity:1"
       d="M 302.71477,142.51651 C 178.8307,142.51668 78.402664,254.81784 78.402802,393.34817 c 0.04162,3.94974 0.166674,7.89784 0.37505,11.84098 l -0.36528,0 0,248.44732 448.605798,0 0,-248.44732 -0.52154,0 c 0.25986,-3.94178 0.43664,-7.88987 0.52964,-11.84098 1.4e-4,-138.53034 -100.42763,-250.83149 -224.3117,-250.83166 z"
       id="path4136"
       inkscape:connector-curvature="0"
       sodipodi:nodetypes="sccccccccs" />
    <path
       style="fill:none;stroke:#ff0000;stroke-width:0.57867539;stroke-miterlimit:4;stroke-dasharray:none;stroke-opacity:1"
       d="m 330.72852,126.68945 c -2.85175,0.022 -5.75551,0.12027 -8.70899,0.29297 -34.81922,0.0367 -57.90651,9.67849 -81.53711,39.9668 -12.93434,19.9691 -29.14369,38.3005 -47.80859,52.53906 -30.10292,15.67845 -45.36462,18.64249 -76.38867,29.29883 -32.926104,11.30967 -46.573204,18.5162 -62.355472,30.39648 -40.341734,24.16002 -53.6019225,57.84178 -53.6406255,92.16407 1.63e-4,49.05628 47.1380165,82.27577 88.0078125,94.55468 0,0 20.702525,8.61732 32.691405,9.24219 33.57478,5.70269 78.6099,8.94981 114.64063,3.19141 18.7298,-1.09021 40.73424,-8.73003 56.18945,-15.55078 0,0 11.89186,-5.17688 25.9082,-12.53907 a 41.341787,27.834073 63.8 0 1 7.32422,-48.04492 41.341787,27.834073 63.8 0 1 38.54492,16.92774 c 17.65054,-16.00022 35.96877,-38.01758 35.96875,-38.01758 0,0 49.25781,-48.46474 49.34766,-119.05469 -5.8e-4,-79.29167 -38.95644,-134.60518 -115.34961,-135.36328 -0.93927,-0.009 -1.8834,-0.0108 -2.83398,-0.004 z m -0.52344,51.04688 a 85.139513,85.139513 0 0 1 85.14062,85.14062 85.139513,85.139513 0 0 1 -85.14062,85.14063 85.139513,85.139513 0 0 1 -85.13672,-85.14063 85.139513,85.139513 0 0 1 85.13672,-85.14062 z M 207.66406,296.93359 a 7.992496,7.992496 0 0 1 7.99219,7.99219 7.992496,7.992496 0 0 1 -7.99219,7.99219 7.992496,7.992496 0 0 1 -7.99414,-7.99219 7.992496,7.992496 0 0 1 7.99414,-7.99219 z M 97.300781,315.27148 A 52.802874,52.802874 0 0 1 150.10352,368.07422 52.802874,52.802874 0 0 1 97.300781,420.875 52.802874,52.802874 0 0 1 44.498047,368.07422 52.802874,52.802874 0 0 1 97.300781,315.27148 Z m 110.808599,89.53711 a 8.4038996,8.8495278 0 0 1 8.40429,8.84961 8.4038996,8.8495278 0 0 1 -8.40429,8.84961 8.4038996,8.8495278 0 0 1 -8.4043,-8.84961 8.4038996,8.8495278 0 0 1 8.4043,-8.84961 z"
       transform="translate(78.114241,142.22798)"
       id="path4743"
       inkscape:connector-curvature="0" />
  </g>
</svg>
