<?xml version="1.0" encoding="UTF-8" standalone="no"?>
<!-- Created with Inkscape (http://www.inkscape.org/) -->

<svg
   xmlns:dc="http://purl.org/dc/elements/1.1/"
   xmlns:cc="http://creativecommons.org/ns#"
   xmlns:rdf="http://www.w3.org/1999/02/22-rdf-syntax-ns#"
   xmlns:svg="http://www.w3.org/2000/svg"
   xmlns="http://www.w3.org/2000/svg"
   xmlns:sodipodi="http://sodipodi.sourceforge.net/DTD/sodipodi-0.dtd"
   xmlns:inkscape="http://www.inkscape.org/namespaces/inkscape"
   width="112.88879mm"
   height="128.59459mm"
   viewBox="0 0 399.99966 455.65012"
   id="svg4161"
   version="1.1"
   inkscape:version="0.91 r13725"
   sodipodi:docname="face.svg">
  <defs
     id="defs4163" />
  <sodipodi:namedview
     id="base"
     pagecolor="#ffffff"
     bordercolor="#666666"
     borderopacity="1.0"
     inkscape:pageopacity="0.0"
     inkscape:pageshadow="2"
     inkscape:zoom="1.1220096"
     inkscape:cx="207.29063"
     inkscape:cy="240.76359"
     inkscape:document-units="px"
     inkscape:current-layer="layer1"
     showgrid="false"
     inkscape:window-width="1920"
     inkscape:window-height="1151"
     inkscape:window-x="1200"
     inkscape:window-y="133"
     inkscape:window-maximized="1"
     showguides="false"
     fit-margin-top="0"
     fit-margin-left="0"
     fit-margin-right="0"
     fit-margin-bottom="0" />
  <metadata
     id="metadata4166">
    <rdf:RDF>
      <cc:Work
         rdf:about="">
        <dc:format>image/svg+xml</dc:format>
        <dc:type
           rdf:resource="http://purl.org/dc/dcmitype/StillImage" />
        <dc:title></dc:title>
      </cc:Work>
    </rdf:RDF>
  </metadata>
  <g
     inkscape:label="Layer 1"
     inkscape:groupmode="layer"
     id="layer1"
     transform="translate(-78.114162,-198.2749)">
    <g
       id="g3335"
       transform="matrix(1.0109291,0,0,1.0109291,-0.85371892,-7.1468236)">
      <path
         sodipodi:nodetypes="sccccccccs"
         inkscape:connector-curvature="0"
         id="path4136"
         d="m 278.11391,198.53183 c -110.31486,1.5e-4 -199.742868,100.0008 -199.742745,223.3577 0.03706,3.51712 0.148418,7.03278 0.33397,10.54402 l -0.32527,0 0,221.23452 399.469345,0 0,-221.23452 -0.46441,0 c 0.23139,-3.51003 0.38881,-7.02568 0.47162,-10.54402 1.3e-4,-123.35691 -89.42764,-223.35755 -199.74251,-223.3577 z"
         style="fill:none;stroke:#ff0000;stroke-width:0.51385492;stroke-miterlimit:4;stroke-dasharray:none;stroke-opacity:1" />
      <path
         inkscape:connector-curvature="0"
         id="path4743"
         transform="translate(78.113996,142.22798)"
         d="m 294.50391,168.85938 c -2.53939,0.0196 -5.12588,0.10792 -7.75586,0.26171 -31.00542,0.0327 -51.56317,8.6171 -72.60547,35.58789 -11.51763,17.78185 -25.95176,34.10617 -42.57227,46.78516 -26.8057,13.96116 -40.39554,16.60071 -68.02148,26.08984 -29.319662,10.07091 -41.471783,16.4874 -55.525392,27.06641 -35.923046,21.51374 -47.7311615,51.5074 -47.7656255,82.07031 1.45e-4,43.68308 41.9739175,73.26329 78.3671875,84.19727 0,0 18.435608,7.67404 29.11133,8.23047 29.89728,5.07807 69.99975,7.96947 102.08398,2.84179 16.6783,-0.9708 36.27278,-7.77399 50.03516,-13.84765 0,0 10.5892,-4.61022 23.07031,-11.16602 a 36.81356,24.785366 63.8 0 1 6.52149,-42.78125 36.81356,24.785366 63.8 0 1 34.32421,15.07227 c 15.71725,-14.24769 32.02737,-33.85352 32.02735,-33.85352 0,0 43.86335,-43.15554 43.94336,-106.01367 -5.2e-4,-70.60674 -34.68914,-119.86205 -102.71485,-120.53711 -0.83639,-0.008 -1.67697,-0.01 -2.52343,-0.004 z m -0.4668,45.45703 a 75.814057,75.814057 0 0 1 75.81445,75.81445 75.814057,75.814057 0 0 1 -75.81445,75.81445 75.814057,75.814057 0 0 1 -75.81055,-75.81445 75.814057,75.814057 0 0 1 75.81055,-75.81445 z M 184.91797,320.45703 a 7.1170662,7.1170662 0 0 1 7.11719,7.11719 7.1170662,7.1170662 0 0 1 -7.11719,7.11719 7.1170662,7.1170662 0 0 1 -7.11719,-7.11719 7.1170662,7.1170662 0 0 1 7.11719,-7.11719 z M 86.642578,336.78711 A 47.019298,47.019298 0 0 1 133.66211,383.80469 47.019298,47.019298 0 0 1 86.642578,430.82227 47.019298,47.019298 0 0 1 39.625,383.80469 47.019298,47.019298 0 0 1 86.642578,336.78711 Z m 98.671872,79.72851 a 7.4834081,7.880226 0 0 1 7.48438,7.88086 7.4834081,7.880226 0 0 1 -7.48438,7.88086 7.4834081,7.880226 0 0 1 -7.48242,-7.88086 7.4834081,7.880226 0 0 1 7.48242,-7.88086 z"
         style="fill:none;stroke:#ff0000;stroke-width:0.51529223;stroke-miterlimit:4;stroke-dasharray:none;stroke-opacity:1" />
    </g>
  </g>
</svg>
