<?xml version="1.0" encoding="UTF-8" standalone="no"?>
<!-- Created with Inkscape (http://www.inkscape.org/) -->

<svg
   xmlns:dc="http://purl.org/dc/elements/1.1/"
   xmlns:cc="http://creativecommons.org/ns#"
   xmlns:rdf="http://www.w3.org/1999/02/22-rdf-syntax-ns#"
   xmlns:svg="http://www.w3.org/2000/svg"
   xmlns="http://www.w3.org/2000/svg"
   xmlns:sodipodi="http://sodipodi.sourceforge.net/DTD/sodipodi-0.dtd"
   xmlns:inkscape="http://www.inkscape.org/namespaces/inkscape"
   width="126.77451mm"
   height="144.41228mm"
   viewBox="0 0 449.201 511.69704"
   id="svg4161"
   version="1.1"
   inkscape:version="0.91 r13725"
   sodipodi:docname="face.svg">
  <defs
     id="defs4163" />
  <sodipodi:namedview
     id="base"
     pagecolor="#ffffff"
     bordercolor="#666666"
     borderopacity="1.0"
     inkscape:pageopacity="0.0"
     inkscape:pageshadow="2"
     inkscape:zoom="1.1220096"
     inkscape:cx="203.72548"
     inkscape:cy="312.06425"
     inkscape:document-units="px"
     inkscape:current-layer="layer1"
     showgrid="false"
     inkscape:window-width="1600"
     inkscape:window-height="851"
     inkscape:window-x="0"
     inkscape:window-y="25"
     inkscape:window-maximized="1"
     showguides="false"
     fit-margin-top="0"
     fit-margin-left="0"
     fit-margin-right="0"
     fit-margin-bottom="0" />
  <metadata
     id="metadata4166">
    <rdf:RDF>
      <cc:Work
         rdf:about="">
        <dc:format>image/svg+xml</dc:format>
        <dc:type
           rdf:resource="http://purl.org/dc/dcmitype/StillImage" />
        <dc:title></dc:title>
      </cc:Work>
    </rdf:RDF>
  </metadata>
  <g
     inkscape:label="Layer 1"
     inkscape:groupmode="layer"
     id="layer1"
     transform="translate(-78.114271,-142.22798)">
    <path
       style="fill:none;stroke:#ff0000;stroke-width:0.5770613;stroke-miterlimit:4;stroke-dasharray:none;stroke-opacity:1"
       d="M 302.71477,142.51651 C 178.8307,142.51668 78.402664,254.81784 78.402802,393.34817 c 0.04162,3.94974 0.166674,7.89784 0.37505,11.84098 l -0.36528,0 0,248.44732 448.605798,0 0,-248.44732 -0.52154,0 c 0.25986,-3.94178 0.43664,-7.88987 0.52964,-11.84098 1.4e-4,-138.53034 -100.42763,-250.83149 -224.3117,-250.83166 z"
       id="path4136"
       inkscape:connector-curvature="0"
       sodipodi:nodetypes="sccccccccs" />
    <path
       style="fill:none;stroke:#ff0000;stroke-width:0.57867539;stroke-miterlimit:4;stroke-dasharray:none;stroke-opacity:1"
       d="m 408.84204,268.9184 c -2.85175,0.022 -5.75464,0.11972 -8.70812,0.29242 -34.81922,0.0367 -57.90708,9.67862 -81.53768,39.96693 -12.93434,19.9691 -29.14364,38.30077 -47.80854,52.53933 -30.10292,15.67845 -45.36481,18.64161 -76.38888,29.29795 -32.9261,11.30967 -46.57209,18.51561 -62.35436,30.39589 -40.341738,24.16002 -53.602148,57.8431 -53.640851,92.16539 1.63e-4,49.0563 47.137081,82.2761 88.006881,94.55501 0,0 20.70334,8.61606 32.69222,9.24093 33.57478,5.70269 78.61001,8.94995 114.64074,3.19155 18.7298,-1.09021 40.73492,-8.72971 56.19013,-15.55046 0,0 11.89094,-5.17794 25.90728,-12.54013 a 41.341791,27.834077 63.8 0 1 7.32493,-48.04355 41.341791,27.834077 63.8 0 1 38.54428,16.92648 c 17.65054,-16.00022 35.96809,-38.01684 35.96807,-38.01684 0,0 49.25794,-48.46404 49.34779,-119.05399 -5.8e-4,-79.29169 -38.95618,-134.60522 -115.34935,-135.36332 -0.93927,-0.009 -1.88396,-0.0109 -2.83454,-0.004 z m -0.52206,51.04672 a 85.139523,85.139523 0 0 1 85.14006,85.14005 85.139523,85.139523 0 0 1 -85.14006,85.14006 85.139523,85.139523 0 0 1 -85.13826,-85.14006 85.139523,85.139523 0 0 1 85.13826,-85.14005 z M 175.41462,457.49919 a 52.80288,52.80288 0 0 1 52.80306,52.80305 52.80288,52.80288 0 0 1 -52.80306,52.80126 52.80288,52.80288 0 0 1 -52.80305,-52.80126 52.80288,52.80288 0 0 1 52.80305,-52.80305 z"
       id="path4743"
       inkscape:connector-curvature="0" />
  </g>
</svg>
