<?xml version="1.0" encoding="UTF-8" standalone="no"?>
<!-- Created with Inkscape (http://www.inkscape.org/) -->

<svg
   xmlns:dc="http://purl.org/dc/elements/1.1/"
   xmlns:cc="http://creativecommons.org/ns#"
   xmlns:rdf="http://www.w3.org/1999/02/22-rdf-syntax-ns#"
   xmlns:svg="http://www.w3.org/2000/svg"
   xmlns="http://www.w3.org/2000/svg"
   xmlns:sodipodi="http://sodipodi.sourceforge.net/DTD/sodipodi-0.dtd"
   xmlns:inkscape="http://www.inkscape.org/namespaces/inkscape"
   width="126.77451mm"
   height="144.41228mm"
   viewBox="0 0 449.201 511.69704"
   id="svg4161"
   version="1.1"
   inkscape:version="0.91 r13725"
   sodipodi:docname="face.svg">
  <defs
     id="defs4163" />
  <sodipodi:namedview
     id="base"
     pagecolor="#ffffff"
     bordercolor="#666666"
     borderopacity="1.0"
     inkscape:pageopacity="0.0"
     inkscape:pageshadow="2"
     inkscape:zoom="1.1220096"
     inkscape:cx="203.72548"
     inkscape:cy="205.1133"
     inkscape:document-units="px"
     inkscape:current-layer="layer1"
     showgrid="false"
     inkscape:window-width="1600"
     inkscape:window-height="851"
     inkscape:window-x="0"
     inkscape:window-y="25"
     inkscape:window-maximized="1"
     showguides="false"
     fit-margin-top="0"
     fit-margin-left="0"
     fit-margin-right="0"
     fit-margin-bottom="0" />
  <metadata
     id="metadata4166">
    <rdf:RDF>
      <cc:Work
         rdf:about="">
        <dc:format>image/svg+xml</dc:format>
        <dc:type
           rdf:resource="http://purl.org/dc/dcmitype/StillImage" />
        <dc:title></dc:title>
      </cc:Work>
    </rdf:RDF>
  </metadata>
  <g
     inkscape:label="Layer 1"
     inkscape:groupmode="layer"
     id="layer1"
     transform="translate(-78.114271,-142.22798)">
    <path
       style="fill:none;stroke:#ff0000;stroke-width:0.5770613;stroke-miterlimit:4;stroke-dasharray:none;stroke-opacity:1"
       d="M 302.71477,142.51651 C 178.8307,142.51668 78.402664,254.81784 78.402802,393.34817 c 0.04162,3.94974 0.166674,7.89784 0.37505,11.84098 l -0.36528,0 0,248.44732 448.605798,0 0,-248.44732 -0.52154,0 c 0.25986,-3.94178 0.43664,-7.88987 0.52964,-11.84098 1.4e-4,-138.53034 -100.42763,-250.83149 -224.3117,-250.83166 z"
       id="path4136"
       inkscape:connector-curvature="0"
       sodipodi:nodetypes="sccccccccs" />
    <path
       style="fill:none;stroke:#ff0000;stroke-width:0.57867539;stroke-miterlimit:4;stroke-dasharray:none;stroke-opacity:1"
       d="M 330.72852 126.68945 C 327.87677 126.71145 324.97301 126.80972 322.01953 126.98242 C 287.20031 127.01912 264.11302 136.66091 240.48242 166.94922 C 227.54808 186.91832 211.33873 205.24972 192.67383 219.48828 C 162.57091 235.16673 147.30921 238.13077 116.28516 248.78711 C 83.359056 260.09678 69.711956 267.30331 53.929688 279.18359 C 13.587954 303.34361 0.3277655 337.02537 0.2890625 371.34766 C 0.2892255 420.40394 47.427079 453.62343 88.296875 465.90234 C 88.296875 465.90234 108.9994 474.51966 120.98828 475.14453 C 154.56306 480.84722 199.59818 484.09434 235.62891 478.33594 C 254.35871 477.24573 276.36315 469.60591 291.81836 462.78516 C 291.81836 462.78516 303.71022 457.60828 317.72656 450.24609 A 41.341787 27.834073 63.8 0 1 325.05078 402.20117 A 41.341787 27.834073 63.8 0 1 363.5957 419.12891 C 381.24624 403.12869 399.56447 381.11133 399.56445 381.11133 C 399.56445 381.11133 448.82226 332.64659 448.91211 262.05664 C 448.91153 182.76497 409.95567 127.45146 333.5625 126.69336 C 332.62323 126.68436 331.6791 126.68255 330.72852 126.68945 z M 330.20508 177.73633 A 85.139513 85.139513 0 0 1 415.3457 262.87695 A 85.139513 85.139513 0 0 1 330.20508 348.01758 A 85.139513 85.139513 0 0 1 245.06836 262.87695 A 85.139513 85.139513 0 0 1 330.20508 177.73633 z M 207.66406 296.93359 A 7.992496 7.992496 0 0 1 215.65625 304.92578 A 7.992496 7.992496 0 0 1 207.66406 312.91797 A 7.992496 7.992496 0 0 1 199.66992 304.92578 A 7.992496 7.992496 0 0 1 207.66406 296.93359 z M 97.300781 315.27148 A 52.802874 52.802874 0 0 1 150.10352 368.07422 A 52.802874 52.802874 0 0 1 97.300781 420.875 A 52.802874 52.802874 0 0 1 44.498047 368.07422 A 52.802874 52.802874 0 0 1 97.300781 315.27148 z M 208.10938 404.80859 A 8.4038996 8.8495278 0 0 1 216.51367 413.6582 A 8.4038996 8.8495278 0 0 1 208.10938 422.50781 A 8.4038996 8.8495278 0 0 1 199.70508 413.6582 A 8.4038996 8.8495278 0 0 1 208.10938 404.80859 z "
       transform="translate(78.114241,142.22798)"
       id="path4743" />
  </g>
</svg>
