<?xml version="1.0" encoding="UTF-8" standalone="no"?>
<!-- Created with Inkscape (http://www.inkscape.org/) -->

<svg
   xmlns:dc="http://purl.org/dc/elements/1.1/"
   xmlns:cc="http://creativecommons.org/ns#"
   xmlns:rdf="http://www.w3.org/1999/02/22-rdf-syntax-ns#"
   xmlns:svg="http://www.w3.org/2000/svg"
   xmlns="http://www.w3.org/2000/svg"
   xmlns:sodipodi="http://sodipodi.sourceforge.net/DTD/sodipodi-0.dtd"
   xmlns:inkscape="http://www.inkscape.org/namespaces/inkscape"
   width="126.7747mm"
   height="144.41226mm"
   viewBox="0 0 449.20168 511.69699"
   id="svg4161"
   version="1.1"
   inkscape:version="0.91 r13725"
   sodipodi:docname="face.svg">
  <defs
     id="defs4163" />
  <sodipodi:namedview
     id="base"
     pagecolor="#ffffff"
     bordercolor="#666666"
     borderopacity="1.0"
     inkscape:pageopacity="0.0"
     inkscape:pageshadow="2"
     inkscape:zoom="1.1220096"
     inkscape:cx="205.50828"
     inkscape:cy="240.76356"
     inkscape:document-units="px"
     inkscape:current-layer="layer1"
     showgrid="false"
     inkscape:window-width="1200"
     inkscape:window-height="1896"
     inkscape:window-x="0"
     inkscape:window-y="0"
     inkscape:window-maximized="1"
     showguides="false"
     fit-margin-top="0"
     fit-margin-left="0"
     fit-margin-right="0"
     fit-margin-bottom="0" />
  <metadata
     id="metadata4166">
    <rdf:RDF>
      <cc:Work
         rdf:about="">
        <dc:format>image/svg+xml</dc:format>
        <dc:type
           rdf:resource="http://purl.org/dc/dcmitype/StillImage" />
        <dc:title />
      </cc:Work>
    </rdf:RDF>
  </metadata>
  <g
     inkscape:label="Layer 1"
     inkscape:groupmode="layer"
     id="layer1"
     transform="translate(-78.113996,-142.22798)">
    <path
       style="fill:none;stroke:#ff0000;stroke-width:0.51385492;stroke-miterlimit:4;stroke-dasharray:none;stroke-opacity:1"
       d="m 278.11391,198.53183 c -110.31486,1.5e-4 -199.742868,100.0008 -199.742745,223.3577 0.03706,3.51712 0.148418,7.03278 0.33397,10.54402 l -0.32527,0 0,221.23452 399.469345,0 0,-221.23452 -0.46441,0 c 0.23139,-3.51003 0.38881,-7.02568 0.47162,-10.54402 1.3e-4,-123.35691 -89.42764,-223.35755 -199.74251,-223.3577 z"
       id="path4136"
       inkscape:connector-curvature="0"
       sodipodi:nodetypes="sccccccccs" />
    <path
       style="fill:none;stroke:#ff0000;stroke-width:0.51529223;stroke-miterlimit:4;stroke-dasharray:none;stroke-opacity:1"
       d="M 294.50391 168.85938 C 291.96452 168.87898 289.37803 168.9673 286.74805 169.12109 C 255.74263 169.15379 235.18488 177.73819 214.14258 204.70898 C 202.62495 222.49083 188.19082 238.81515 171.57031 251.49414 C 144.76461 265.4553 131.17477 268.09485 103.54883 277.58398 C 74.229168 287.65489 62.077047 294.07138 48.023438 304.65039 C 12.100392 326.16413 0.2922765 356.15779 0.2578125 386.7207 C 0.2579575 430.40378 42.23173 459.98399 78.625 470.91797 C 78.625 470.91797 97.060608 478.59201 107.73633 479.14844 C 137.63361 484.22651 177.73608 487.11791 209.82031 481.99023 C 226.49861 481.01943 246.09309 474.21624 259.85547 468.14258 C 259.85547 468.14258 270.44467 463.53236 282.92578 456.97656 A 36.81356 24.785366 63.8 0 1 289.44727 414.19531 A 36.81356 24.785366 63.8 0 1 323.77148 429.26758 C 339.48873 415.01989 355.79885 395.41406 355.79883 395.41406 C 355.79883 395.41406 399.66218 352.25852 399.74219 289.40039 C 399.74167 218.79365 365.05305 169.53834 297.02734 168.86328 C 296.19095 168.85528 295.35037 168.85338 294.50391 168.85938 z M 294.03711 214.31641 A 75.814057 75.814057 0 0 1 369.85156 290.13086 A 75.814057 75.814057 0 0 1 294.03711 365.94531 A 75.814057 75.814057 0 0 1 218.22656 290.13086 A 75.814057 75.814057 0 0 1 294.03711 214.31641 z M 184.91797 320.45703 A 7.1170662 7.1170662 0 0 1 192.03516 327.57422 A 7.1170662 7.1170662 0 0 1 184.91797 334.69141 A 7.1170662 7.1170662 0 0 1 177.80078 327.57422 A 7.1170662 7.1170662 0 0 1 184.91797 320.45703 z M 86.642578 336.78711 A 47.019298 47.019298 0 0 1 133.66211 383.80469 A 47.019298 47.019298 0 0 1 86.642578 430.82227 A 47.019298 47.019298 0 0 1 39.625 383.80469 A 47.019298 47.019298 0 0 1 86.642578 336.78711 z M 185.31445 416.51562 A 7.4834081 7.880226 0 0 1 192.79883 424.39648 A 7.4834081 7.880226 0 0 1 185.31445 432.27734 A 7.4834081 7.880226 0 0 1 177.83203 424.39648 A 7.4834081 7.880226 0 0 1 185.31445 416.51562 z "
       transform="translate(78.113996,142.22798)"
       id="path4743" />
  </g>
</svg>
